<?xml version="1.0" encoding="UTF-8"?>
<!DOCTYPE svg PUBLIC "-//W3C//DTD SVG 1.1//EN" "http://www.w3.org/Graphics/SVG/1.1/DTD/svg11.dtd">
<svg xmlns="http://www.w3.org/2000/svg" version="1.1" width="1365px" height="325px" style="shape-rendering:geometricPrecision; text-rendering:geometricPrecision; image-rendering:optimizeQuality; fill-rule:evenodd; clip-rule:evenodd" xmlns:xlink="http://www.w3.org/1999/xlink">
<g><path style="opacity:1" fill="#b24ef2" d="M 112.5,-0.5 C 112.833,-0.5 113.167,-0.5 113.5,-0.5C 125.436,9.59544 137.27,19.9288 149,30.5C 150.194,44.1513 150.527,57.818 150,71.5C 137.406,81.5403 124.572,91.207 111.5,100.5C 110.833,83.8333 110.167,67.1667 109.5,50.5C 97.2175,43.3538 85.2175,35.6872 73.5,27.5C 86.5416,18.1097 99.5416,8.77635 112.5,-0.5 Z"/></g>
<g><path style="opacity:1" fill="#b24ef2" d="M 39.5,39.5 C 51.5427,49.9441 63.7093,60.2774 76,70.5C 76.2892,82.3443 76.7892,94.1777 77.5,106C 77.4644,108.094 77.1311,110.094 76.5,112C 63.3582,121.641 50.3582,131.475 37.5,141.5C 36.9274,124.466 36.094,107.466 35,90.5C 23.3411,82.9962 11.8411,75.3295 0.5,67.5C 13.5416,58.1097 26.5416,48.7764 39.5,39.5 Z"/></g>
<g><path style="opacity:1" fill="#b24ef2" d="M 190.5,56.5 C 191.552,56.3505 192.552,56.5172 193.5,57C 204.721,67.1887 216.221,77.022 228,86.5C 228.718,100.169 229.052,113.836 229,127.5C 215.923,137.621 202.756,147.621 189.5,157.5C 188.667,140.843 188.167,124.177 188,107.5C 176.167,99.6667 164.333,91.8333 152.5,84C 165.069,74.583 177.735,65.4163 190.5,56.5 Z"/></g>
<g><path style="opacity:0.734" fill="#aa67f6" d="M 109.5,50.5 C 110.167,67.1667 110.833,83.8333 111.5,100.5C 111.44,101.043 111.107,101.376 110.5,101.5C 109.501,84.5131 109.167,67.5131 109.5,50.5 Z"/></g>
<g><path style="opacity:0.982" fill="#000065" d="M 271.5,62.5 C 308.835,62.3333 346.168,62.5 383.5,63C 405.239,64.4344 419.739,75.2677 427,95.5C 429.353,119.82 418.853,135.654 395.5,143C 390.9,144.317 386.234,145.317 381.5,146C 395.246,147.929 407.913,152.596 419.5,160C 433.904,172.984 438.071,188.817 432,207.5C 425.018,223.147 413.184,232.981 396.5,237C 391.239,238.385 385.906,239.385 380.5,240C 344.168,240.5 307.835,240.667 271.5,240.5C 271.5,237.5 271.5,234.5 271.5,231.5C 279.167,231.5 286.833,231.5 294.5,231.5C 294.5,178.167 294.5,124.833 294.5,71.5C 286.833,71.5 279.167,71.5 271.5,71.5C 271.5,68.5 271.5,65.5 271.5,62.5 Z M 338.5,71.5 C 349.747,70.6758 360.747,71.8424 371.5,75C 376.866,79.5655 379.699,85.3989 380,92.5C 380.861,104.21 380.527,115.877 379,127.5C 376.77,135.88 371.27,140.38 362.5,141C 354.507,141.5 346.507,141.666 338.5,141.5C 338.5,118.167 338.5,94.8333 338.5,71.5 Z M 338.5,151.5 C 349.747,150.676 360.747,151.842 371.5,155C 377.837,157.836 381.67,162.669 383,169.5C 386.169,184.15 386.169,198.817 383,213.5C 381.386,223.447 375.553,228.947 365.5,230C 356.546,231.264 347.546,231.764 338.5,231.5C 338.5,204.833 338.5,178.167 338.5,151.5 Z"/></g>
<g><path style="opacity:0.965" fill="#000065" d="M 473.5,65.5 C 492.801,64.6277 500.968,73.6277 498,92.5C 491.164,104.657 481.33,107.823 468.5,102C 456.5,90.6667 456.5,79.3333 468.5,68C 470.315,67.2432 471.981,66.4098 473.5,65.5 Z"/></g>
<g><path style="opacity:0.964" fill="#000065" d="M 564.5,100.5 C 566.833,100.5 569.167,100.5 571.5,100.5C 571.5,111.5 571.5,122.5 571.5,133.5C 580.5,133.5 589.5,133.5 598.5,133.5C 598.5,136.5 598.5,139.5 598.5,142.5C 589.5,142.5 580.5,142.5 571.5,142.5C 571.333,168.502 571.5,194.502 572,220.5C 575.015,229.337 580.015,230.67 587,224.5C 589.072,221.029 590.572,217.362 591.5,213.5C 594.5,213.5 597.5,213.5 600.5,213.5C 599.862,227.642 592.862,236.808 579.5,241C 570.887,242.505 562.22,242.839 553.5,242C 542.626,240.459 536.459,234.293 535,223.5C 534.5,196.502 534.333,169.502 534.5,142.5C 529.5,142.5 524.5,142.5 519.5,142.5C 519.5,139.5 519.5,136.5 519.5,133.5C 524.5,133.5 529.5,133.5 534.5,133.5C 534.168,124.475 534.502,115.475 535.5,106.5C 545.309,104.592 554.976,102.592 564.5,100.5 Z"/></g>
<g><path style="opacity:0.964" fill="#000065" d="M 754.5,100.5 C 756.833,100.5 759.167,100.5 761.5,100.5C 761.5,111.5 761.5,122.5 761.5,133.5C 770.5,133.5 779.5,133.5 788.5,133.5C 788.5,136.5 788.5,139.5 788.5,142.5C 779.5,142.5 770.5,142.5 761.5,142.5C 761.026,169.564 761.526,196.564 763,223.5C 765.64,228.453 769.473,229.62 774.5,227C 777.734,223.367 780.068,219.201 781.5,214.5C 784.428,213.516 787.428,213.183 790.5,213.5C 789.86,227.646 782.86,236.813 769.5,241C 760.887,242.505 752.22,242.839 743.5,242C 732.624,240.457 726.457,234.29 725,223.5C 724.5,196.502 724.333,169.502 724.5,142.5C 719.5,142.5 714.5,142.5 709.5,142.5C 709.5,139.5 709.5,136.5 709.5,133.5C 714.5,133.5 719.5,133.5 724.5,133.5C 724.334,124.494 724.5,115.494 725,106.5C 734.959,104.649 744.792,102.649 754.5,100.5 Z"/></g>
<g><path style="opacity:1" fill="#b24ef2" d="M 116.5,209.5 C 115.668,193.005 115.168,176.338 115,159.5C 114.329,158.748 113.496,158.414 112.5,158.5C 101.054,151.605 89.7208,144.438 78.5,137C 90.8887,127.612 103.555,118.612 116.5,110C 117.5,109.333 118.5,109.333 119.5,110C 130.721,120.189 142.221,130.022 154,139.5C 155.091,153.155 155.424,166.822 155,180.5C 142.555,190.792 129.721,200.459 116.5,209.5 Z"/></g>
<g><path style="opacity:0.964" fill="#000065" d="M 652.5,129.5 C 662.06,129.765 670.893,132.432 679,137.5C 680.643,135.023 682.476,132.69 684.5,130.5C 687.086,129.52 689.753,129.187 692.5,129.5C 692.5,140.833 692.5,152.167 692.5,163.5C 689.167,163.5 685.833,163.5 682.5,163.5C 676.438,143.626 663.104,135.793 642.5,140C 637.087,141.613 632.92,144.78 630,149.5C 628.236,156.396 630.736,160.896 637.5,163C 651.938,165.159 666.272,167.826 680.5,171C 693.821,177.117 700.488,187.617 700.5,202.5C 698.765,229.068 684.598,243.068 658,244.5C 646.45,244.485 636.284,240.818 627.5,233.5C 625.167,235.333 622.833,237.167 620.5,239C 617.854,239.497 615.187,239.664 612.5,239.5C 612.5,226.5 612.5,213.5 612.5,200.5C 615.572,200.183 618.572,200.516 621.5,201.5C 629.085,229.623 646.752,239.456 674.5,231C 684.199,225.329 685.866,217.996 679.5,209C 676.911,207.803 674.244,206.803 671.5,206C 657.892,204.621 644.558,201.955 631.5,198C 616.452,189.575 610.618,176.742 614,159.5C 619.681,140.318 632.515,130.318 652.5,129.5 Z"/></g>
<g><path style="opacity:0.97" fill="#000065" d="M 872.5,129.5 C 889.253,132.645 895.753,142.645 892,159.5C 888.033,168.118 881.533,170.951 872.5,168C 864.944,163.152 862.444,156.318 865,147.5C 866.602,145.631 867.602,143.631 868,141.5C 867.667,141.167 867.333,140.833 867,140.5C 858.851,145.089 853.851,152.089 852,161.5C 851.147,165.469 850.481,169.469 850,173.5C 848.653,193.14 848.153,212.807 848.5,232.5C 855.167,232.5 861.833,232.5 868.5,232.5C 868.5,235.167 868.5,237.833 868.5,240.5C 844.833,240.5 821.167,240.5 797.5,240.5C 797.5,237.833 797.5,235.167 797.5,232.5C 802.167,232.5 806.833,232.5 811.5,232.5C 811.5,202.5 811.5,172.5 811.5,142.5C 806.833,142.5 802.167,142.5 797.5,142.5C 797.5,139.5 797.5,136.5 797.5,133.5C 813.877,133.743 830.21,133.076 846.5,131.5C 846.334,140.173 846.5,148.84 847,157.5C 849.584,142.43 858.084,133.096 872.5,129.5 Z"/></g>
<g><path style="opacity:0.962" fill="#000065" d="M 955.5,129.5 C 988.222,131.555 1006.22,148.889 1009.5,181.5C 987.833,181.5 966.167,181.5 944.5,181.5C 944.123,194.546 944.623,207.546 946,220.5C 948.393,230.044 954.56,234.377 964.5,233.5C 982.598,231.245 994.598,221.412 1000.5,204C 1003.55,203.179 1006.55,203.345 1009.5,204.5C 1002.18,230.829 984.847,244.162 957.5,244.5C 939.947,244.265 925.78,237.265 915,223.5C 898.379,199.1 898.379,174.767 915,150.5C 925.383,137.227 938.883,130.227 955.5,129.5 Z M 953.5,138.5 C 963.865,136.918 969.698,141.251 971,151.5C 971.5,158.158 971.666,164.825 971.5,171.5C 962.5,171.5 953.5,171.5 944.5,171.5C 944.334,163.826 944.5,156.159 945,148.5C 945.946,143.399 948.779,140.066 953.5,138.5 Z"/></g>
<g><path style="opacity:0.97" fill="#000065" d="M 1076.5,129.5 C 1090.07,129.205 1103.07,131.705 1115.5,137C 1119.38,139.928 1121.88,143.761 1123,148.5C 1123.07,172.865 1123.74,197.198 1125,221.5C 1125.78,223.286 1126.95,224.786 1128.5,226C 1132.02,226.519 1135.35,226.186 1138.5,225C 1141.55,227.448 1142.05,230.281 1140,233.5C 1121.17,249.555 1104.17,247.888 1089,228.5C 1070.34,245.641 1049.84,248.474 1027.5,237C 1018.25,225.722 1017.08,213.555 1024,200.5C 1035.29,188.772 1049.13,182.272 1065.5,181C 1072.46,179.913 1079.46,179.413 1086.5,179.5C 1086.67,168.495 1086.5,157.495 1086,146.5C 1085.5,142 1083,139.5 1078.5,139C 1070.59,137.317 1063.42,138.817 1057,143.5C 1056.33,144.5 1056.33,145.5 1057,146.5C 1063.53,153.266 1064.2,160.599 1059,168.5C 1052.14,174.621 1044.3,176.121 1035.5,173C 1026.57,167.334 1024.07,159.501 1028,149.5C 1034,140.907 1042.17,135.407 1052.5,133C 1060.57,131.315 1068.57,130.148 1076.5,129.5 Z M 1076.5,187.5 C 1079.83,187.5 1083.17,187.5 1086.5,187.5C 1086.67,196.173 1086.5,204.84 1086,213.5C 1084.26,224.79 1077.76,229.29 1066.5,227C 1059.18,223.542 1055.51,217.708 1055.5,209.5C 1056.41,196.258 1063.41,188.925 1076.5,187.5 Z"/></g>
<g><path style="opacity:0.976" fill="#000065" d="M 1364.5,232.5 C 1364.5,235.167 1364.5,237.833 1364.5,240.5C 1341.83,240.5 1319.17,240.5 1296.5,240.5C 1296.5,237.833 1296.5,235.167 1296.5,232.5C 1301.83,232.5 1307.17,232.5 1312.5,232.5C 1312.91,204.474 1312.41,176.474 1311,148.5C 1309.71,144.422 1306.88,142.088 1302.5,141.5C 1289.43,144.07 1280.93,151.737 1277,164.5C 1275.91,170.782 1275.24,177.116 1275,183.5C 1274.5,199.83 1274.33,216.163 1274.5,232.5C 1279.83,232.5 1285.17,232.5 1290.5,232.5C 1290.5,235.167 1290.5,237.833 1290.5,240.5C 1267.83,240.5 1245.17,240.5 1222.5,240.5C 1222.5,237.833 1222.5,235.167 1222.5,232.5C 1227.5,232.5 1232.5,232.5 1237.5,232.5C 1237.67,205.165 1237.5,177.831 1237,150.5C 1236.03,144.861 1232.7,142.195 1227,142.5C 1209.64,145.878 1200.97,156.545 1201,174.5C 1200.5,193.83 1200.33,213.164 1200.5,232.5C 1205.83,232.5 1211.17,232.5 1216.5,232.5C 1216.5,235.167 1216.5,237.833 1216.5,240.5C 1193.83,240.5 1171.17,240.5 1148.5,240.5C 1148.5,237.833 1148.5,235.167 1148.5,232.5C 1153.5,232.5 1158.5,232.5 1163.5,232.5C 1163.5,202.5 1163.5,172.5 1163.5,142.5C 1158.5,142.5 1153.5,142.5 1148.5,142.5C 1148.5,139.5 1148.5,136.5 1148.5,133.5C 1165.98,133.885 1183.31,132.552 1200.5,129.5C 1200.33,136.841 1200.5,144.174 1201,151.5C 1213.5,133.327 1230.67,126.493 1252.5,131C 1264.42,133.544 1271.92,140.711 1275,152.5C 1287.42,133.243 1304.92,126.076 1327.5,131C 1341.9,133.396 1349.06,141.896 1349,156.5C 1349.5,181.831 1349.67,207.164 1349.5,232.5C 1354.5,232.5 1359.5,232.5 1364.5,232.5 Z"/></g>
<g><path style="opacity:0.979" fill="#000065" d="M 497.5,129.5 C 498.498,163.663 498.832,197.996 498.5,232.5C 502.167,232.5 505.833,232.5 509.5,232.5C 509.5,235.167 509.5,237.833 509.5,240.5C 489.5,240.5 469.5,240.5 449.5,240.5C 449.5,237.833 449.5,235.167 449.5,232.5C 453.5,232.5 457.5,232.5 461.5,232.5C 461.5,202.5 461.5,172.5 461.5,142.5C 457.5,142.5 453.5,142.5 449.5,142.5C 449.5,139.5 449.5,136.5 449.5,133.5C 465.82,134.214 481.82,132.88 497.5,129.5 Z"/></g>
<g><path style="opacity:1" fill="#b24ff2" d="M -0.5,188.5 C -0.5,188.167 -0.5,187.833 -0.5,187.5C 12.7253,178.299 25.892,168.966 39,159.5C 51.2948,169.459 63.2948,179.793 75,190.5C 76.504,204.133 76.8373,217.8 76,231.5C 63.2851,241.883 50.2851,251.883 37,261.5C 35.8298,244.526 35.1631,227.526 35,210.5C 23.1945,203.019 11.3612,195.686 -0.5,188.5 Z"/></g>
<g><path style="opacity:0.709" fill="#aa66f6" d="M 112.5,158.5 C 113.496,158.414 114.329,158.748 115,159.5C 115.168,176.338 115.668,193.005 116.5,209.5C 116.44,210.043 116.107,210.376 115.5,210.5C 114.667,193.843 114.167,177.177 114,160.5C 113.283,159.956 112.783,159.289 112.5,158.5 Z"/></g>
<g><path style="opacity:0.992" fill="#9e88f9" d="M 194.5,184.5 C 192.784,184.629 191.117,184.962 189.5,185.5C 190.315,184.163 191.482,183.163 193,182.5C 193.717,183.044 194.217,183.711 194.5,184.5 Z"/></g>
<g><path style="opacity:1" fill="#b250f3" d="M 194.5,184.5 C 194.833,184.5 195.167,184.5 195.5,184.5C 196.167,187.167 197.833,188.833 200.5,189.5C 202.193,192.19 204.527,194.19 207.5,195.5C 209.193,198.19 211.527,200.19 214.5,201.5C 216.193,204.19 218.527,206.19 221.5,207.5C 223.193,210.19 225.527,212.19 228.5,213.5C 229.492,221.316 229.826,229.316 229.5,237.5C 229.666,242.844 229.499,248.177 229,253.5C 228.283,254.044 227.783,254.711 227.5,255.5C 224.81,258.185 221.81,260.518 218.5,262.5C 216.5,262.5 215.5,263.5 215.5,265.5C 211.112,269.221 206.445,272.555 201.5,275.5C 199.5,275.5 198.5,276.5 198.5,278.5C 198.167,278.5 197.833,278.5 197.5,278.5C 195.5,278.5 194.5,279.5 194.5,281.5C 193.833,281.833 193.167,282.167 192.5,282.5C 190.841,266.187 189.841,249.52 189.5,232.5C 188.583,231.873 187.583,231.539 186.5,231.5C 182.975,230.241 179.975,228.241 177.5,225.5C 176.341,223.75 174.674,222.75 172.5,222.5C 170.147,221.66 168.147,220.326 166.5,218.5C 165.341,216.75 163.674,215.75 161.5,215.5C 158.553,214.356 155.887,212.689 153.5,210.5C 156.042,207.735 159.042,205.735 162.5,204.5C 165.37,203.567 167.704,201.9 169.5,199.5C 169.973,198.094 170.973,197.427 172.5,197.5C 175.37,196.567 177.704,194.9 179.5,192.5C 179.973,191.094 180.973,190.427 182.5,190.5C 185.37,189.567 187.704,187.9 189.5,185.5C 191.117,184.962 192.784,184.629 194.5,184.5 Z"/></g>
<g><path style="opacity:0.824" fill="#9182e6" d="M 195.5,184.5 C 197.5,185.833 199.167,187.5 200.5,189.5C 197.833,188.833 196.167,187.167 195.5,184.5 Z"/></g>
<g><path style="opacity:0.804" fill="#9987f5" d="M 189.5,185.5 C 187.704,187.9 185.37,189.567 182.5,190.5C 184.296,188.1 186.63,186.433 189.5,185.5 Z"/></g>
<g><path style="opacity:0.098" fill="#9a89f1" d="M 200.5,189.5 C 203.447,190.781 205.781,192.781 207.5,195.5C 204.527,194.19 202.193,192.19 200.5,189.5 Z"/></g>
<g><path style="opacity:0.78" fill="#9b8af2" d="M 179.5,192.5 C 177.704,194.9 175.37,196.567 172.5,197.5C 174.296,195.1 176.63,193.433 179.5,192.5 Z"/></g>
<g><path style="opacity:0.741" fill="#9884f2" d="M 207.5,195.5 C 210.447,196.781 212.781,198.781 214.5,201.5C 211.527,200.19 209.193,198.19 207.5,195.5 Z"/></g>
<g><path style="opacity:0.757" fill="#9182e9" d="M 169.5,199.5 C 167.704,201.9 165.37,203.567 162.5,204.5C 164.296,202.1 166.63,200.433 169.5,199.5 Z"/></g>
<g><path style="opacity:0.761" fill="#9c87f4" d="M 214.5,201.5 C 217.447,202.781 219.781,204.781 221.5,207.5C 218.527,206.19 216.193,204.19 214.5,201.5 Z"/></g>
<g><path style="opacity:0.02" fill="#9581f2" d="M 221.5,207.5 C 224.447,208.781 226.781,210.781 228.5,213.5C 225.527,212.19 223.193,210.19 221.5,207.5 Z"/></g>
<g><path style="opacity:0.404" fill="#8178cf" d="M 161.5,215.5 C 163.674,215.75 165.341,216.75 166.5,218.5C 164.326,218.25 162.659,217.25 161.5,215.5 Z"/></g>
<g><path style="opacity:0.835" fill="#9485f0" d="M 172.5,222.5 C 174.674,222.75 176.341,223.75 177.5,225.5C 175.326,225.25 173.659,224.25 172.5,222.5 Z"/></g>
<g><path style="opacity:0.818" fill="#9b8af2" d="M 123.5,226.5 C 121.956,226.297 120.622,225.63 119.5,224.5C 118.583,225.127 117.583,225.461 116.5,225.5C 119.127,221.602 121.46,221.936 123.5,226.5 Z"/></g>
<g><path style="opacity:1" fill="#b24ff3" d="M 123.5,226.5 C 125.193,229.19 127.527,231.19 130.5,232.5C 132.193,235.19 134.527,237.19 137.5,238.5C 139.193,241.19 141.527,243.19 144.5,244.5C 144.833,244.5 145.167,244.5 145.5,244.5C 146.167,247.167 147.833,248.833 150.5,249.5C 151.167,249.833 151.833,250.167 152.5,250.5C 152.685,252.196 153.519,253.529 155,254.5C 155.5,267.829 155.667,281.163 155.5,294.5C 155.5,295.167 155.167,295.5 154.5,295.5C 152.5,295.5 151.5,296.5 151.5,298.5C 147.112,302.221 142.445,305.555 137.5,308.5C 135.5,308.5 134.5,309.5 134.5,311.5C 130.112,315.221 125.445,318.555 120.5,321.5C 119.504,321.414 118.671,321.748 118,322.5C 117.831,305.995 117.331,289.662 116.5,273.5C 115.341,271.75 113.674,270.75 111.5,270.5C 108.489,269.331 105.822,267.664 103.5,265.5C 102.198,263.178 100.198,261.845 97.5,261.5C 95.1475,260.66 93.1475,259.326 91.5,257.5C 90.3406,255.75 88.674,254.75 86.5,254.5C 84.9731,254.573 83.9731,253.906 83.5,252.5C 83.1961,251.85 82.8627,251.183 82.5,250.5C 84.188,249.479 85.5213,248.145 86.5,246.5C 86.9731,245.094 87.9731,244.427 89.5,244.5C 92.3702,243.567 94.7036,241.9 96.5,239.5C 99.3702,238.567 101.704,236.9 103.5,234.5C 103.973,233.094 104.973,232.427 106.5,232.5C 109.37,231.567 111.704,229.9 113.5,227.5C 113.973,226.094 114.973,225.427 116.5,225.5C 117.583,225.461 118.583,225.127 119.5,224.5C 120.622,225.63 121.956,226.297 123.5,226.5 Z"/></g>
<g><path style="opacity:0.118" fill="#9a89f6" d="M 123.5,226.5 C 126.447,227.781 128.781,229.781 130.5,232.5C 127.527,231.19 125.193,229.19 123.5,226.5 Z"/></g>
<g><path style="opacity:0.765" fill="#9281e9" d="M 113.5,227.5 C 111.704,229.9 109.37,231.567 106.5,232.5C 108.296,230.1 110.63,228.433 113.5,227.5 Z"/></g>
<g><path style="opacity:0.765" fill="#9b86f5" d="M 130.5,232.5 C 133.447,233.781 135.781,235.781 137.5,238.5C 134.527,237.19 132.193,235.19 130.5,232.5 Z"/></g>
<g><path style="opacity:0.745" fill="#9081e8" d="M 103.5,234.5 C 101.704,236.9 99.3702,238.567 96.5,239.5C 98.2964,237.1 100.63,235.433 103.5,234.5 Z"/></g>
<g><path style="opacity:0.02" fill="#9682f2" d="M 137.5,238.5 C 140.447,239.781 142.781,241.781 144.5,244.5C 141.527,243.19 139.193,241.19 137.5,238.5 Z"/></g>
<g><path style="opacity:0.82" fill="#9b88f7" d="M 96.5,239.5 C 94.7036,241.9 92.3702,243.567 89.5,244.5C 91.2964,242.1 93.6298,240.433 96.5,239.5 Z"/></g>
<g><path style="opacity:0.075" fill="#9084e5" d="M 145.5,244.5 C 147.5,245.833 149.167,247.5 150.5,249.5C 147.833,248.833 146.167,247.167 145.5,244.5 Z"/></g>
<g><path style="opacity:0.878" fill="#9c8af3" d="M 86.5,246.5 C 85.5213,248.145 84.188,249.479 82.5,250.5C 82.8627,251.183 83.1961,251.85 83.5,252.5C 82.0047,252.585 81.0047,251.919 80.5,250.5C 82.1764,248.663 84.1764,247.33 86.5,246.5 Z"/></g>
<g><path style="opacity:0.295" fill="#908ff2" d="M 229.5,237.5 C 230.652,242.985 230.818,248.651 230,254.5C 229.329,255.252 228.496,255.586 227.5,255.5C 227.783,254.711 228.283,254.044 229,253.5C 229.499,248.177 229.666,242.844 229.5,237.5 Z"/></g>
<g><path style="opacity:0.827" fill="#9384f0" d="M 86.5,254.5 C 88.674,254.75 90.3406,255.75 91.5,257.5C 89.326,257.25 87.6594,256.25 86.5,254.5 Z"/></g>
<g><path style="opacity:0.863" fill="#8e7fe5" d="M 97.5,261.5 C 100.198,261.845 102.198,263.178 103.5,265.5C 101.147,264.66 99.1475,263.326 97.5,261.5 Z"/></g>
<g><path style="opacity:0.409" fill="#9a8ffa" d="M 186.5,231.5 C 187.583,231.539 188.583,231.873 189.5,232.5C 189.841,249.52 190.841,266.187 192.5,282.5C 192.189,283.478 191.522,284.145 190.5,284.5C 189.833,267.5 189.167,250.5 188.5,233.5C 187.478,233.145 186.811,232.478 186.5,231.5 Z"/></g>
<g><path style="opacity:0.059" fill="#7b73c8" d="M 218.5,262.5 C 217.833,263.833 216.833,264.833 215.5,265.5C 215.5,263.5 216.5,262.5 218.5,262.5 Z"/></g>
<g><path style="opacity:0.059" fill="#7b72c8" d="M 201.5,275.5 C 200.833,276.833 199.833,277.833 198.5,278.5C 198.5,276.5 199.5,275.5 201.5,275.5 Z"/></g>
<g><path style="opacity:0.123" fill="#8d89ea" d="M 111.5,270.5 C 113.674,270.75 115.341,271.75 116.5,273.5C 116.5,279.167 116.5,284.833 116.5,290.5C 115.673,285.015 115.173,279.348 115,273.5C 113.482,272.837 112.315,271.837 111.5,270.5 Z"/></g>
<g><path style="opacity:0.082" fill="#958ce1" d="M 197.5,278.5 C 196.833,279.833 195.833,280.833 194.5,281.5C 194.5,279.5 195.5,278.5 197.5,278.5 Z"/></g>
<g><path style="opacity:0.973" fill="#9c85f4" d="M 152.5,250.5 C 153.794,251.29 154.961,252.29 156,253.5C 156.203,266.526 156.703,279.526 157.5,292.5C 157.253,293.713 156.586,294.38 155.5,294.5C 155.667,281.163 155.5,267.829 155,254.5C 153.519,253.529 152.685,252.196 152.5,250.5 Z"/></g>
<g><path style="opacity:0.071" fill="#948be1" d="M 154.5,295.5 C 153.833,296.833 152.833,297.833 151.5,298.5C 151.5,296.5 152.5,295.5 154.5,295.5 Z"/></g>
<g><path style="opacity:0.856" fill="#9f7cf6" d="M 116.5,273.5 C 117.331,289.662 117.831,305.995 118,322.5C 118.671,321.748 119.504,321.414 120.5,321.5C 119.833,322.5 119.167,323.5 118.5,324.5C 117.833,324.5 117.167,324.5 116.5,324.5C 116.5,313.167 116.5,301.833 116.5,290.5C 116.5,284.833 116.5,279.167 116.5,273.5 Z"/></g>
<g><path style="opacity:0.071" fill="#7a73c6" d="M 137.5,308.5 C 136.833,309.833 135.833,310.833 134.5,311.5C 134.5,309.5 135.5,308.5 137.5,308.5 Z"/></g>
</svg>
