<svg xmlns="http://www.w3.org/2000/svg" version="1.1" xmlns:xlink="http://www.w3.org/1999/xlink" xmlns:svgjs="http://svgjs.dev/svgjs" width="2.40635in" height="3.38542in"><svg xmlns="http://www.w3.org/2000/svg" xml:space="preserve" width="2.40635in" height="3.38542in" version="1.1" style="shape-rendering:geometricPrecision; text-rendering:geometricPrecision; image-rendering:optimizeQuality; fill-rule:evenodd; clip-rule:evenodd" viewBox="0 0 165.68 233.08" xmlns:xlink="http://www.w3.org/1999/xlink" xmlns:xodm="http://www.corel.com/coreldraw/odm/2003">
 <defs>
  <style type="text/css">
   
    .fil0 {fill:#B24EF2}
    .fil2 {fill:#B24FF2}
    .fil17 {fill:#B24FF3}
    .fil5 {fill:#B250F3}
    .fil13 {fill:#9581F2;fill-opacity:0.019608}
    .fil22 {fill:#9682F2;fill-opacity:0.019608}
    .fil31 {fill:#7B72C8;fill-opacity:0.058824}
    .fil30 {fill:#7B73C8;fill-opacity:0.058824}
    .fil37 {fill:#7A73C6;fill-opacity:0.070588}
    .fil35 {fill:#948BE1;fill-opacity:0.070588}
    .fil24 {fill:#9084E5;fill-opacity:0.074510}
    .fil33 {fill:#958CE1;fill-opacity:0.082353}
    .fil8 {fill:#9A89F1;fill-opacity:0.098039}
    .fil18 {fill:#9A89F6;fill-opacity:0.117647}
    .fil32 {fill:#8D89EA;fill-opacity:0.121569}
    .fil26 {fill:#908FF2;fill-opacity:0.294118}
    .fil14 {fill:#8178CF;fill-opacity:0.403922}
    .fil29 {fill:#9A8FFA;fill-opacity:0.407843}
    .fil3 {fill:#AA66F6;fill-opacity:0.709804}
    .fil1 {fill:#AA67F6;fill-opacity:0.733333}
    .fil10 {fill:#9884F2;fill-opacity:0.741176}
    .fil21 {fill:#9081E8;fill-opacity:0.745098}
    .fil11 {fill:#9182E9;fill-opacity:0.756863}
    .fil12 {fill:#9C87F4;fill-opacity:0.760784}
    .fil19 {fill:#9281E9;fill-opacity:0.764706}
    .fil20 {fill:#9B86F5;fill-opacity:0.764706}
    .fil9 {fill:#9B8AF2;fill-opacity:0.780392}
    .fil7 {fill:#9987F5;fill-opacity:0.803922}
    .fil23 {fill:#9B88F7;fill-opacity:0.819608}
    .fil16 {fill:#9B8AF2;fill-opacity:0.819608}
    .fil6 {fill:#9182E6;fill-opacity:0.823529}
    .fil27 {fill:#9384F0;fill-opacity:0.827451}
    .fil15 {fill:#9485F0;fill-opacity:0.835294}
    .fil36 {fill:#9F7CF6;fill-opacity:0.854902}
    .fil28 {fill:#8E7FE5;fill-opacity:0.862745}
    .fil25 {fill:#9C8AF3;fill-opacity:0.878431}
    .fil34 {fill:#9C85F4;fill-opacity:0.972549}
    .fil4 {fill:#9E88F9;fill-opacity:0.992157}
   
  </style>
 </defs>
 <g id="SvgjsG1005">
  <metadata id="SvgjsMetadata1004"></metadata>
  <g id="SvgjsG1003">
   <g>
    <path class="fil0" d="M81.04 0c0.24,0 0.48,0 0.72,0 8.56,7.24 17.05,14.65 25.46,22.23 0.86,9.79 1.1,19.59 0.72,29.4 -9.03,7.2 -18.24,14.13 -27.61,20.8 -0.48,-11.95 -0.96,-23.91 -1.43,-35.86 -8.81,-5.13 -17.42,-10.62 -25.82,-16.5 9.35,-6.73 18.68,-13.43 27.97,-20.08z"></path>
   </g>
   <g>
    <path class="fil0" d="M28.69 28.69c8.64,7.49 17.36,14.9 26.18,22.23 0.21,8.49 0.57,16.98 1.08,25.46 -0.03,1.5 -0.26,2.94 -0.72,4.3 -9.43,6.91 -18.75,13.97 -27.97,21.16 -0.41,-12.22 -1.01,-24.41 -1.79,-36.58 -8.36,-5.38 -16.61,-10.88 -24.74,-16.5 9.35,-6.73 18.68,-13.43 27.97,-20.08z"></path>
   </g>
   <g>
    <path class="fil0" d="M136.98 40.88c0.75,-0.11 1.47,0.01 2.15,0.36 8.05,7.31 16.29,14.36 24.74,21.16 0.51,9.8 0.75,19.6 0.72,29.4 -9.38,7.26 -18.82,14.43 -28.33,21.52 -0.6,-11.95 -0.96,-23.9 -1.08,-35.86 -8.49,-5.62 -16.97,-11.24 -25.46,-16.85 9.01,-6.75 18.1,-13.33 27.25,-19.72z"></path>
   </g>
   <g>
    <path class="fil1" d="M78.89 36.58c0.48,11.95 0.96,23.91 1.43,35.86 -0.04,0.39 -0.28,0.63 -0.72,0.72 -0.72,-12.18 -0.96,-24.37 -0.72,-36.58z"></path>
   </g>
   <g>
    <path class="fil0" d="M83.91 150.61c-0.6,-11.83 -0.96,-23.78 -1.08,-35.86 -0.48,-0.54 -1.08,-0.78 -1.79,-0.72 -8.21,-4.94 -16.34,-10.09 -24.38,-15.42 8.88,-6.73 17.97,-13.19 27.25,-19.36 0.72,-0.48 1.43,-0.48 2.15,0 8.05,7.31 16.3,14.36 24.74,21.16 0.78,9.79 1.02,19.59 0.72,29.4 -8.93,7.38 -18.13,14.31 -27.61,20.8z"></path>
   </g>
   <g>
    <path class="fil2" d="M-0 135.55c0,-0.24 0,-0.48 0,-0.72 9.48,-6.6 18.93,-13.29 28.33,-20.08 8.82,7.14 17.42,14.55 25.82,22.23 1.08,9.78 1.32,19.58 0.72,29.4 -9.12,7.45 -18.44,14.62 -27.97,21.52 -0.84,-12.17 -1.32,-24.37 -1.43,-36.58 -8.47,-5.37 -16.95,-10.62 -25.46,-15.78z"></path>
   </g>
   <g>
    <path class="fil3" d="M81.04 114.03c0.71,-0.06 1.31,0.18 1.79,0.72 0.12,12.08 0.48,24.03 1.08,35.86 -0.04,0.39 -0.28,0.63 -0.72,0.72 -0.6,-11.95 -0.96,-23.9 -1.08,-35.86 -0.51,-0.39 -0.87,-0.87 -1.08,-1.43z"></path>
   </g>
   <g>
    <path class="fil4" d="M139.85 132.68c-1.23,0.09 -2.43,0.33 -3.59,0.72 0.58,-0.96 1.42,-1.68 2.51,-2.15 0.51,0.39 0.87,0.87 1.08,1.43z"></path>
   </g>
   <g>
    <path class="fil5" d="M139.85 132.68c0.24,0 0.48,0 0.72,0 0.48,1.91 1.67,3.11 3.59,3.59 1.21,1.93 2.89,3.36 5.02,4.3 1.21,1.93 2.89,3.36 5.02,4.3 1.21,1.93 2.89,3.36 5.02,4.3 1.21,1.93 2.89,3.36 5.02,4.3 0.71,5.61 0.95,11.34 0.72,17.21 0.12,3.83 -0,7.66 -0.36,11.47 -0.51,0.39 -0.87,0.87 -1.08,1.43 -1.93,1.93 -4.08,3.6 -6.45,5.02 -1.43,0 -2.15,0.72 -2.15,2.15 -3.15,2.67 -6.49,5.06 -10.04,7.17 -1.43,0 -2.15,0.72 -2.15,2.15 -0.24,0 -0.48,0 -0.72,0 -1.43,0 -2.15,0.72 -2.15,2.15 -0.48,0.24 -0.96,0.48 -1.43,0.72 -1.19,-11.7 -1.91,-23.65 -2.15,-35.86 -0.66,-0.45 -1.37,-0.69 -2.15,-0.72 -2.53,-0.9 -4.68,-2.34 -6.45,-4.3 -0.83,-1.26 -2.03,-1.97 -3.59,-2.15 -1.69,-0.6 -3.12,-1.56 -4.3,-2.87 -0.83,-1.26 -2.03,-1.97 -3.59,-2.15 -2.11,-0.82 -4.03,-2.02 -5.74,-3.59 1.82,-1.98 3.97,-3.42 6.45,-4.3 2.06,-0.67 3.73,-1.86 5.02,-3.59 0.34,-1.01 1.06,-1.49 2.15,-1.43 2.06,-0.67 3.73,-1.86 5.02,-3.59 0.34,-1.01 1.06,-1.49 2.15,-1.43 2.06,-0.67 3.73,-1.86 5.02,-3.59 1.16,-0.39 2.36,-0.62 3.59,-0.72z"></path>
   </g>
   <g>
    <path class="fil6" d="M140.57 132.68c1.43,0.96 2.63,2.15 3.59,3.59 -1.91,-0.48 -3.11,-1.67 -3.59,-3.59z"></path>
   </g>
   <g>
    <path class="fil7" d="M136.26 133.4c-1.29,1.72 -2.96,2.92 -5.02,3.59 1.29,-1.72 2.96,-2.92 5.02,-3.59z"></path>
   </g>
   <g>
    <path class="fil8" d="M144.15 136.26c2.11,0.92 3.79,2.35 5.02,4.3 -2.13,-0.94 -3.81,-2.37 -5.02,-4.3z"></path>
   </g>
   <g>
    <path class="fil9" d="M129.09 138.42c-1.29,1.72 -2.96,2.92 -5.02,3.59 1.29,-1.72 2.96,-2.92 5.02,-3.59z"></path>
   </g>
   <g>
    <path class="fil10" d="M149.17 140.57c2.11,0.92 3.79,2.35 5.02,4.3 -2.13,-0.94 -3.81,-2.37 -5.02,-4.3z"></path>
   </g>
   <g>
    <path class="fil11" d="M121.92 143.44c-1.29,1.72 -2.96,2.92 -5.02,3.59 1.29,-1.72 2.96,-2.92 5.02,-3.59z"></path>
   </g>
   <g>
    <path class="fil12" d="M154.19 144.87c2.11,0.92 3.79,2.35 5.02,4.3 -2.13,-0.94 -3.81,-2.37 -5.02,-4.3z"></path>
   </g>
   <g>
    <path class="fil13" d="M159.21 149.17c2.11,0.92 3.79,2.35 5.02,4.3 -2.13,-0.94 -3.81,-2.37 -5.02,-4.3z"></path>
   </g>
   <g>
    <path class="fil14" d="M116.18 154.91c1.56,0.18 2.75,0.9 3.59,2.15 -1.56,-0.18 -2.75,-0.9 -3.59,-2.15z"></path>
   </g>
   <g>
    <path class="fil15" d="M124.07 159.93c1.56,0.18 2.75,0.9 3.59,2.15 -1.56,-0.18 -2.75,-0.9 -3.59,-2.15z"></path>
   </g>
   <g>
    <path class="fil16" d="M88.93 162.8c-1.11,-0.15 -2.06,-0.62 -2.87,-1.43 -0.66,0.45 -1.37,0.69 -2.15,0.72 1.88,-2.8 3.56,-2.56 5.02,0.72z"></path>
   </g>
   <g>
    <path class="fil17" d="M88.93 162.8c1.21,1.93 2.89,3.36 5.02,4.3 1.21,1.93 2.89,3.36 5.02,4.3 1.21,1.93 2.89,3.36 5.02,4.3 0.24,0 0.48,0 0.72,0 0.48,1.91 1.67,3.11 3.59,3.59 0.48,0.24 0.96,0.48 1.43,0.72 0.13,1.22 0.73,2.17 1.79,2.87 0.36,9.56 0.48,19.12 0.36,28.69 0,0.48 -0.24,0.72 -0.72,0.72 -1.43,0 -2.15,0.72 -2.15,2.15 -3.15,2.67 -6.49,5.06 -10.04,7.17 -1.43,0 -2.15,0.72 -2.15,2.15 -3.15,2.67 -6.49,5.06 -10.04,7.17 -0.71,-0.06 -1.31,0.18 -1.79,0.72 -0.12,-11.84 -0.48,-23.55 -1.08,-35.14 -0.83,-1.26 -2.03,-1.97 -3.59,-2.15 -2.16,-0.84 -4.07,-2.03 -5.74,-3.59 -0.93,-1.67 -2.37,-2.62 -4.3,-2.87 -1.69,-0.6 -3.12,-1.56 -4.3,-2.87 -0.83,-1.26 -2.03,-1.97 -3.59,-2.15 -1.1,0.05 -1.81,-0.43 -2.15,-1.43 -0.22,-0.47 -0.46,-0.94 -0.72,-1.43 1.21,-0.73 2.17,-1.69 2.87,-2.87 0.34,-1.01 1.06,-1.49 2.15,-1.43 2.06,-0.67 3.73,-1.86 5.02,-3.59 2.06,-0.67 3.73,-1.86 5.02,-3.59 0.34,-1.01 1.06,-1.49 2.15,-1.43 2.06,-0.67 3.73,-1.86 5.02,-3.59 0.34,-1.01 1.06,-1.49 2.15,-1.43 0.78,-0.03 1.49,-0.27 2.15,-0.72 0.8,0.81 1.76,1.29 2.87,1.43z"></path>
   </g>
   <g>
    <path class="fil18" d="M88.93 162.8c2.11,0.92 3.79,2.35 5.02,4.3 -2.13,-0.94 -3.81,-2.37 -5.02,-4.3z"></path>
   </g>
   <g>
    <path class="fil19" d="M81.76 163.52c-1.29,1.72 -2.96,2.92 -5.02,3.59 1.29,-1.72 2.96,-2.92 5.02,-3.59z"></path>
   </g>
   <g>
    <path class="fil20" d="M93.95 167.1c2.11,0.92 3.79,2.35 5.02,4.3 -2.13,-0.94 -3.81,-2.37 -5.02,-4.3z"></path>
   </g>
   <g>
    <path class="fil21" d="M74.59 168.54c-1.29,1.72 -2.96,2.92 -5.02,3.59 1.29,-1.72 2.96,-2.92 5.02,-3.59z"></path>
   </g>
   <g>
    <path class="fil22" d="M98.97 171.41c2.11,0.92 3.79,2.35 5.02,4.3 -2.13,-0.94 -3.81,-2.37 -5.02,-4.3z"></path>
   </g>
   <g>
    <path class="fil23" d="M69.57 172.12c-1.29,1.72 -2.96,2.92 -5.02,3.59 1.29,-1.72 2.96,-2.92 5.02,-3.59z"></path>
   </g>
   <g>
    <path class="fil24" d="M104.71 175.71c1.43,0.96 2.63,2.15 3.59,3.59 -1.91,-0.48 -3.11,-1.67 -3.59,-3.59z"></path>
   </g>
   <g>
    <path class="fil25" d="M62.39 177.14c-0.7,1.18 -1.66,2.14 -2.87,2.87 0.26,0.49 0.5,0.97 0.72,1.43 -1.07,0.06 -1.79,-0.42 -2.15,-1.43 1.2,-1.32 2.64,-2.27 4.3,-2.87z"></path>
   </g>
   <g>
    <path class="fil26" d="M164.95 170.69c0.83,3.93 0.95,8 0.36,12.19 -0.48,0.54 -1.08,0.78 -1.79,0.72 0.2,-0.57 0.56,-1.04 1.08,-1.43 0.36,-3.82 0.48,-7.64 0.36,-11.47z"></path>
   </g>
   <g>
    <path class="fil27" d="M62.39 182.88c1.56,0.18 2.75,0.9 3.59,2.15 -1.56,-0.18 -2.75,-0.9 -3.59,-2.15z"></path>
   </g>
   <g>
    <path class="fil28" d="M70.28 187.9c1.93,0.25 3.37,1.2 4.3,2.87 -1.69,-0.6 -3.12,-1.56 -4.3,-2.87z"></path>
   </g>
   <g>
    <path class="fil29" d="M134.11 166.39c0.78,0.03 1.49,0.27 2.15,0.72 0.24,12.21 0.96,24.16 2.15,35.86 -0.22,0.7 -0.7,1.18 -1.43,1.43 -0.48,-12.19 -0.96,-24.38 -1.43,-36.58 -0.73,-0.25 -1.21,-0.73 -1.43,-1.43z"></path>
   </g>
   <g>
    <path class="fil30" d="M157.06 188.62c-0.48,0.96 -1.2,1.67 -2.15,2.15 0,-1.43 0.72,-2.15 2.15,-2.15z"></path>
   </g>
   <g>
    <path class="fil31" d="M144.87 197.94c-0.48,0.96 -1.2,1.67 -2.15,2.15 0,-1.43 0.72,-2.15 2.15,-2.15z"></path>
   </g>
   <g>
    <path class="fil32" d="M80.32 194.36c1.56,0.18 2.75,0.9 3.59,2.15 0,4.06 0,8.13 0,12.19 -0.59,-3.93 -0.95,-8 -1.08,-12.19 -1.09,-0.48 -1.93,-1.19 -2.51,-2.15z"></path>
   </g>
   <g>
    <path class="fil33" d="M142 200.09c-0.48,0.96 -1.2,1.67 -2.15,2.15 0,-1.43 0.72,-2.15 2.15,-2.15z"></path>
   </g>
   <g>
    <path class="fil34" d="M109.73 180.01c0.93,0.57 1.77,1.28 2.51,2.15 0.15,9.34 0.5,18.67 1.08,27.97 -0.18,0.87 -0.66,1.35 -1.43,1.43 0.12,-9.56 0,-19.13 -0.36,-28.69 -1.06,-0.7 -1.66,-1.65 -1.79,-2.87z"></path>
   </g>
   <g>
    <path class="fil35" d="M111.16 212.28c-0.48,0.96 -1.2,1.67 -2.15,2.15 0,-1.43 0.72,-2.15 2.15,-2.15z"></path>
   </g>
   <g>
    <path class="fil36" d="M83.91 196.51c0.6,11.59 0.95,23.3 1.08,35.14 0.48,-0.54 1.08,-0.78 1.79,-0.72 -0.48,0.72 -0.96,1.43 -1.43,2.15 -0.48,0 -0.96,0 -1.43,0 0,-8.13 0,-16.26 0,-24.38 0,-4.06 0,-8.13 0,-12.19z"></path>
   </g>
   <g>
    <path class="fil37" d="M98.97 221.61c-0.48,0.96 -1.2,1.67 -2.15,2.15 0,-1.43 0.72,-2.15 2.15,-2.15z"></path>
   </g>
  </g>
 </g>
</svg><style>@media (prefers-color-scheme: light) { :root { filter: none; } }
@media (prefers-color-scheme: dark) { :root { filter: none; } }
</style></svg>